<svg id="Layer_1" data-name="Layer 1" xmlns="http://www.w3.org/2000/svg" xmlns:xlink="http://www.w3.org/1999/xlink" viewBox="0 0 130 130"><defs><style>.cls-1{fill:#21545c;}.cls-2{fill:#d1d8d6;}</style><symbol id="ICONE_PIPEDRIVE" data-name="ICONE PIPEDRIVE" viewBox="0 0 118.61 111.44"><path class="cls-1" d="M95.92,66.05a22.71,22.71,0,0,0-21,14.09H66.73a23,23,0,0,0,.67-5.48,22.73,22.73,0,0,0-2-9.37l8-8a22.7,22.7,0,1,0,10.8-43.22v0H43.7a22.7,22.7,0,1,0,0,17.21H60.93a23.06,23.06,0,0,0-.67,5.49,22.55,22.55,0,0,0,1.41,7.87l-8.82,8.81A22.7,22.7,0,1,0,44.7,97.35H74.91a22.7,22.7,0,1,0,21-31.3Z"/><circle class="cls-2" cx="22.7" cy="22.7" r="16.42"/><circle class="cls-2" cx="95.92" cy="88.75" r="16.42"/><circle class="cls-2" cx="82.96" cy="36.79" r="16.42"/><circle class="cls-2" cx="44.7" cy="74.66" r="16.42"/></symbol></defs><use width="118.61" height="111.44" transform="translate(5.69 9.28)" xlink:href="#ICONE_PIPEDRIVE"/></svg>