<svg id="Layer_1" data-name="Layer 1" xmlns="http://www.w3.org/2000/svg" xmlns:xlink="http://www.w3.org/1999/xlink" viewBox="0 0 690 130"><defs><style>.cls-1{fill:#21545c;}.cls-2{fill:#d1d8d6;}.cls-3{fill:#192435;}</style><symbol id="ICONE_PIPEDRIVE" data-name="ICONE PIPEDRIVE" viewBox="0 0 118.61 111.44"><path class="cls-1" d="M95.92,66.05a22.71,22.71,0,0,0-21,14.09H66.73a23,23,0,0,0,.67-5.48,22.73,22.73,0,0,0-2-9.37l8-8a22.7,22.7,0,1,0,10.8-43.22v0H43.7a22.7,22.7,0,1,0,0,17.21H60.93a23.06,23.06,0,0,0-.67,5.49,22.55,22.55,0,0,0,1.41,7.87l-8.82,8.81A22.7,22.7,0,1,0,44.7,97.35H74.91a22.7,22.7,0,1,0,21-31.3Z"/><circle class="cls-2" cx="22.7" cy="22.7" r="16.42"/><circle class="cls-2" cx="95.92" cy="88.75" r="16.42"/><circle class="cls-2" cx="82.96" cy="36.79" r="16.42"/><circle class="cls-2" cx="44.7" cy="74.66" r="16.42"/></symbol><symbol id="LOGO" data-name="LOGO" viewBox="0 0 673.95 112.67"><use width="118.61" height="111.44" transform="translate(0 0.62)" xlink:href="#ICONE_PIPEDRIVE"/><path class="cls-3" d="M141.24,101.45V30.2h6.12v10h.7A21.81,21.81,0,0,1,151,35.35a15.86,15.86,0,0,1,5.05-4.16A16.64,16.64,0,0,1,164,29.5a19,19,0,0,1,11.13,3.34,22,22,0,0,1,7.47,9.37,34.31,34.31,0,0,1,2.69,14.06,34.87,34.87,0,0,1-2.66,14.12,22.1,22.1,0,0,1-7.45,9.42A19,19,0,0,1,164,83.17a16.47,16.47,0,0,1-7.82-1.69,15.57,15.57,0,0,1-5.1-4.2,24.27,24.27,0,0,1-3-4.92h-.51v29.09Zm21.9-24a13.29,13.29,0,0,0,8.6-2.83A17.66,17.66,0,0,0,177.07,67a29.88,29.88,0,0,0,1.84-10.76,30,30,0,0,0-1.81-10.69A17.16,17.16,0,0,0,171.76,38a14.8,14.8,0,0,0-17.14-.09,16.71,16.71,0,0,0-5.33,7.42,30.07,30.07,0,0,0-1.83,10.9,30.43,30.43,0,0,0,1.85,11,17.17,17.17,0,0,0,5.36,7.54A13.36,13.36,0,0,0,163.14,77.47Z"/><path class="cls-3" d="M195.05,100.75l1.72-5.47.74.23a11.27,11.27,0,0,0,5,.49,7,7,0,0,0,4.08-2.25,15.57,15.57,0,0,0,3.11-5.62l2-5.65L191.85,30.2h6.87l12,32.61c1.12,3,2.08,5.91,2.9,8.83s1.66,5.8,2.53,8.61h-2.23q1.35-4.22,2.62-8.63c.85-2.94,1.82-5.87,2.9-8.81l12-32.61h6.82l-23,60.3a23.25,23.25,0,0,1-3.53,6.36,13.14,13.14,0,0,1-4.71,3.73,14,14,0,0,1-6,1.23,17,17,0,0,1-3.47-.33A11.79,11.79,0,0,1,195.05,100.75Z"/><path class="cls-3" d="M247.88,101.45V30.2h11.79v8.58h.79a21.7,21.7,0,0,1,2.64-4,14.71,14.71,0,0,1,4.66-3.69,16.17,16.17,0,0,1,7.54-1.55,19.81,19.81,0,0,1,10.85,3.06,21.13,21.13,0,0,1,7.68,9,33.68,33.68,0,0,1,2.85,14.59,34.19,34.19,0,0,1-2.78,14.52,21.07,21.07,0,0,1-7.63,9.11,19.86,19.86,0,0,1-11,3.14,16.23,16.23,0,0,1-7.37-1.51,14.77,14.77,0,0,1-4.74-3.64,21.41,21.41,0,0,1-2.68-4h-.52v27.6ZM272,73.06a10.51,10.51,0,0,0,6.77-2.2,13.47,13.47,0,0,0,4.13-6,25.46,25.46,0,0,0,1.39-8.66,25.23,25.23,0,0,0-1.37-8.6,12.92,12.92,0,0,0-4.11-5.94A10.63,10.63,0,0,0,272,39.48a10.77,10.77,0,0,0-6.73,2.08,12.78,12.78,0,0,0-4.15,5.82,24.62,24.62,0,0,0-1.42,8.79A25.14,25.14,0,0,0,261.13,65,12.84,12.84,0,0,0,265.3,71,10.71,10.71,0,0,0,272,73.06Z"/><path class="cls-3" d="M313.2,22.87a6.93,6.93,0,0,1-4.94-1.95,6.31,6.31,0,0,1,0-9.35,7.37,7.37,0,0,1,9.92,0,6.31,6.31,0,0,1,0,9.35A7,7,0,0,1,313.2,22.87Zm-6,59.19V30.2h12.06V82.06Z"/><path class="cls-3" d="M332,101.45V30.2h11.78v8.58h.79a22.78,22.78,0,0,1,2.64-4,14.75,14.75,0,0,1,4.67-3.69,16.13,16.13,0,0,1,7.53-1.55,19.87,19.87,0,0,1,10.86,3.06,21.26,21.26,0,0,1,7.68,9,33.68,33.68,0,0,1,2.85,14.59,34.35,34.35,0,0,1-2.78,14.52,21,21,0,0,1-7.64,9.11,19.82,19.82,0,0,1-11,3.14A16.27,16.27,0,0,1,352,81.48a14.73,14.73,0,0,1-4.73-3.64,22,22,0,0,1-2.69-4h-.51v27.6Zm24.12-28.39a10.49,10.49,0,0,0,6.77-2.2,13.4,13.4,0,0,0,4.13-6,25.22,25.22,0,0,0,1.39-8.66,25,25,0,0,0-1.37-8.6,13,13,0,0,0-4.1-5.94,11.89,11.89,0,0,0-13.54-.07,12.87,12.87,0,0,0-4.16,5.82,24.86,24.86,0,0,0-1.41,8.79A25.38,25.38,0,0,0,345.27,65,12.93,12.93,0,0,0,349.45,71,10.68,10.68,0,0,0,356.15,73.06Z"/><path class="cls-3" d="M414.23,83.12a26.22,26.22,0,0,1-13.48-3.29,22,22,0,0,1-8.67-9.28,30.72,30.72,0,0,1-3-14.1,31.29,31.29,0,0,1,3-14.05A22.73,22.73,0,0,1,400.52,33a24,24,0,0,1,12.92-3.41,26.66,26.66,0,0,1,9,1.53,21.05,21.05,0,0,1,7.61,4.73A21.92,21.92,0,0,1,435.26,44a32.89,32.89,0,0,1,1.88,11.76v3.8h-42.4V51.3h36.42l-5.66,2.42A20.25,20.25,0,0,0,424.15,46a11.18,11.18,0,0,0-4-5.17A11.37,11.37,0,0,0,413.48,39a11.84,11.84,0,0,0-6.77,1.88,12.05,12.05,0,0,0-4.24,5,16.21,16.21,0,0,0-1.46,7v5.66a18.52,18.52,0,0,0,1.67,8.3A11.58,11.58,0,0,0,407.36,72a14,14,0,0,0,7,1.71,14.3,14.3,0,0,0,4.8-.76,10.31,10.31,0,0,0,3.73-2.28,9.51,9.51,0,0,0,2.37-3.68l11.08,2.27a17.71,17.71,0,0,1-4.26,7.31,20.65,20.65,0,0,1-7.54,4.87A28.63,28.63,0,0,1,414.23,83.12Z"/><path class="cls-3" d="M466.6,83a19.74,19.74,0,0,1-11-3.14A20.94,20.94,0,0,1,448,70.74a34.19,34.19,0,0,1-2.79-14.52,33.53,33.53,0,0,1,2.86-14.59,21,21,0,0,1,7.7-9,19.77,19.77,0,0,1,10.78-3.06,16.33,16.33,0,0,1,7.59,1.55,15,15,0,0,1,4.68,3.69,20.08,20.08,0,0,1,2.62,4H482V12.94H494V82.06H482.18V73.85h-.74a21.21,21.21,0,0,1-2.71,4A15.09,15.09,0,0,1,474,81.48,16.19,16.19,0,0,1,466.6,83Zm3.29-9.93A10.58,10.58,0,0,0,476.57,71,13.06,13.06,0,0,0,480.74,65a24.9,24.9,0,0,0,1.44-8.86,24.86,24.86,0,0,0-1.41-8.79,12.83,12.83,0,0,0-4.18-5.82,10.78,10.78,0,0,0-6.7-2.08,10.68,10.68,0,0,0-6.82,2.15,13.18,13.18,0,0,0-4.13,5.94,25,25,0,0,0-1.39,8.6,25.46,25.46,0,0,0,1.39,8.66,13.29,13.29,0,0,0,4.16,6A10.56,10.56,0,0,0,469.89,73.06Z"/><path class="cls-3" d="M506.77,82.06V30.2h11.69v8.67H519a12.75,12.75,0,0,1,4.88-6.93,13.44,13.44,0,0,1,7.93-2.44c.68,0,1.44,0,2.27.09s1.55.14,2.13.24V40.91a14.23,14.23,0,0,0-2.41-.41,28.29,28.29,0,0,0-3.29-.19,12.45,12.45,0,0,0-6,1.44,10.61,10.61,0,0,0-4.17,4,11.13,11.13,0,0,0-1.51,5.83V82.06Z"/><path class="cls-3" d="M551.44,22.87a6.93,6.93,0,0,1-4.94-1.95,6.31,6.31,0,0,1,0-9.35,7,7,0,0,1,4.94-1.92,7.07,7.07,0,0,1,5,1.92,6.33,6.33,0,0,1,0,9.35A7,7,0,0,1,551.44,22.87Zm-6,59.19V30.2h12.06V82.06Z"/><path class="cls-3" d="M585,82.06,565.68,30.2h12.9L588,58.4q1.66,5,2.87,10l2.46,10.16h-3q1.29-5.15,2.48-10.16t2.81-10l9.41-28.2h12.8L598.47,82.06Z"/><path class="cls-3" d="M647.09,83.12a26.22,26.22,0,0,1-13.48-3.29,22,22,0,0,1-8.67-9.28,30.72,30.72,0,0,1-3-14.1,31.29,31.29,0,0,1,3-14.05A22.79,22.79,0,0,1,633.38,33a24,24,0,0,1,12.92-3.41,26.66,26.66,0,0,1,9,1.53,21.05,21.05,0,0,1,7.61,4.73A21.92,21.92,0,0,1,668.12,44,32.89,32.89,0,0,1,670,55.71v3.8H627.61V51.3H664l-5.66,2.42A20.25,20.25,0,0,0,657,46a11.18,11.18,0,0,0-4-5.17A11.34,11.34,0,0,0,646.35,39a11.88,11.88,0,0,0-6.78,1.88,12.05,12.05,0,0,0-4.24,5,16.21,16.21,0,0,0-1.46,7v5.66a18.52,18.52,0,0,0,1.67,8.3A11.58,11.58,0,0,0,640.22,72a14,14,0,0,0,7,1.71,14.3,14.3,0,0,0,4.8-.76,10.23,10.23,0,0,0,3.73-2.28,9.51,9.51,0,0,0,2.37-3.68l11.09,2.27A17.84,17.84,0,0,1,665,76.52a20.65,20.65,0,0,1-7.54,4.87A28.63,28.63,0,0,1,647.09,83.12Z"/></symbol></defs><use width="673.95" height="112.67" transform="translate(8.03 8.66)" xlink:href="#LOGO"/></svg>